<svg xmlns="http://www.w3.org/2000/svg" xmlns:xlink="http://www.w3.org/1999/xlink" width="500" zoomAndPan="magnify" viewBox="0 0 375 374.999991" height="500" preserveAspectRatio="xMidYMid meet" version="1.0"><defs><clipPath id="6ca5faa707"><path d="M 193 27.292969 L 338 27.292969 L 338 347.542969 L 193 347.542969 Z M 193 27.292969 " clip-rule="nonzero"/></clipPath><clipPath id="9e61abbd79"><path d="M 37.308594 27.292969 L 182 27.292969 L 182 347.542969 L 37.308594 347.542969 Z M 37.308594 27.292969 " clip-rule="nonzero"/></clipPath></defs><path fill="#56aeff" d="M 233.835938 295.757812 C 233.835938 300.253906 230.183594 303.894531 225.683594 303.894531 C 221.179688 303.894531 217.53125 300.253906 217.53125 295.757812 C 217.53125 291.265625 221.179688 287.621094 225.683594 287.621094 C 230.183594 287.621094 233.835938 291.265625 233.835938 295.757812 " fill-opacity="1" fill-rule="nonzero"/><path fill="#145da0" d="M 283.582031 268.441406 C 283.582031 272.9375 279.933594 276.578125 275.433594 276.578125 C 270.929688 276.578125 267.28125 272.9375 267.28125 268.441406 C 267.28125 263.949219 270.929688 260.304688 275.433594 260.304688 C 279.933594 260.304688 283.582031 263.949219 283.582031 268.441406 " fill-opacity="1" fill-rule="nonzero"/><path fill="#56aeff" d="M 57.925781 234.113281 C 53.761719 230.121094 51.46875 224.761719 51.46875 219.027344 C 51.46875 213.738281 53.472656 208.683594 57.109375 204.78125 L 57.535156 204.320312 C 59.285156 202.449219 59.679688 199.683594 58.527344 197.394531 L 58.246094 196.835938 C 56.761719 193.875 56.003906 190.726562 56.003906 187.464844 C 56.003906 182.179688 58.003906 177.121094 61.640625 173.21875 L 62.160156 172.664062 C 64.195312 170.476562 64.359375 167.152344 62.546875 164.78125 L 62.089844 164.175781 C 58.953125 160.054688 57.46875 155.078125 57.859375 149.902344 C 58.808594 137.34375 72.136719 127.097656 84.382812 132.035156 C 90.347656 134.4375 94.921875 139.691406 96.449219 145.929688 C 97.121094 148.644531 99.488281 150.601562 102.289062 150.480469 L 102.960938 150.453125 C 106.585938 150.296875 109.101562 146.859375 108.269531 143.328125 C 104.917969 129.105469 92.113281 118.480469 76.855469 118.480469 C 75.75 118.480469 74.660156 118.554688 73.578125 118.664062 C 73.527344 118.128906 73.496094 117.589844 73.496094 117.050781 C 73.496094 110.214844 77.609375 104.140625 83.972656 101.578125 L 84.136719 101.507812 C 86.886719 100.316406 88.582031 97.523438 88.363281 94.539062 L 88.355469 94.40625 C 88.328125 94.046875 88.296875 93.6875 88.296875 93.324219 C 88.296875 85.339844 93.992188 78.449219 101.839844 76.941406 C 105.199219 76.292969 107.609375 73.332031 107.550781 69.917969 C 107.550781 69.761719 107.539062 69.609375 107.53125 69.4375 C 107.613281 60.304688 115.085938 52.898438 124.253906 52.898438 C 126.859375 52.898438 129.25 53.40625 131.339844 55.027344 C 134.066406 57.148438 136.28125 60.152344 137.453125 63.398438 C 138.058594 65.082031 138.402344 66.753906 138.519531 68.382812 C 138.753906 71.597656 141.574219 73.925781 144.777344 73.5625 L 146.65625 73.355469 C 149.5625 73.027344 151.691406 70.472656 151.476562 67.5625 C 150.828125 58.355469 146.292969 50.398438 139.609375 45.097656 C 142.714844 42.722656 146.507812 41.382812 150.515625 41.382812 C 159.769531 41.382812 167.566406 48.445312 168.652344 57.808594 L 168.789062 58.726562 L 168.789062 315.875 L 168.6875 316.871094 C 167.710938 326.375 159.898438 333.542969 150.515625 333.542969 C 145.96875 333.542969 141.609375 331.820312 138.238281 328.695312 L 137.972656 328.449219 C 136.8125 327.375 135.285156 326.785156 133.703125 326.808594 L 133.339844 326.816406 L 132.882812 326.835938 C 124.144531 326.765625 116.429688 321.230469 113.417969 313.261719 C 123.226562 308.027344 129.917969 297.710938 129.917969 285.855469 C 129.917969 285.628906 129.914062 285.398438 129.910156 285.171875 C 129.832031 281.792969 126.589844 279.378906 123.304688 280.203125 L 122.445312 280.421875 C 119.953125 281.042969 118.246094 283.292969 118.238281 285.859375 C 118.214844 295.21875 111.582031 303.015625 102.78125 304.847656 C 101.996094 304.9375 101.230469 305 100.484375 305 C 88.914062 305 79.5 295.601562 79.5 284.050781 C 79.5 283.382812 79.535156 282.683594 79.605469 281.96875 L 79.6875 281.121094 C 79.996094 278.003906 77.917969 275.117188 74.867188 274.527344 C 70.09375 273.601562 65.433594 271.875 62.078125 268.367188 C 54.867188 260.839844 54.359375 250.570312 59.066406 242.835938 L 59.445312 242.21875 C 60.9375 239.765625 60.523438 236.609375 58.453125 234.621094 L 57.925781 234.113281 " fill-opacity="1" fill-rule="nonzero"/><g clip-path="url(#6ca5faa707)"><path fill="#140540" d="M 317.4375 234.113281 L 316.914062 234.621094 C 314.839844 236.609375 314.429688 239.765625 315.925781 242.21875 L 316.300781 242.835938 C 321.003906 250.570312 320.5 260.839844 313.289062 268.367188 C 309.933594 271.875 305.269531 273.601562 300.5 274.527344 C 297.449219 275.117188 295.367188 278.003906 295.675781 281.121094 L 295.757812 281.96875 C 295.828125 282.683594 295.867188 283.382812 295.867188 284.050781 C 295.867188 295.601562 286.449219 305 274.878906 305 C 274.132812 305 273.371094 304.9375 272.585938 304.847656 C 263.78125 303.015625 257.148438 295.21875 257.125 285.859375 C 257.121094 283.292969 255.410156 281.042969 252.921875 280.421875 L 252.058594 280.203125 C 248.773438 279.378906 245.535156 281.792969 245.457031 285.171875 C 245.449219 285.398438 245.445312 285.628906 245.445312 285.855469 C 245.445312 297.710938 252.140625 308.027344 261.949219 313.261719 C 258.933594 321.230469 251.222656 326.765625 242.484375 326.835938 L 242.027344 326.816406 L 241.664062 326.808594 C 240.082031 326.785156 238.554688 327.375 237.394531 328.445312 L 237.125 328.695312 C 233.757812 331.820312 229.394531 333.542969 224.847656 333.542969 C 215.464844 333.542969 207.65625 326.375 206.679688 316.871094 L 206.578125 315.875 L 206.578125 58.726562 L 206.710938 57.808594 C 207.796875 48.445312 215.59375 41.382812 224.847656 41.382812 C 228.859375 41.382812 232.648438 42.722656 235.753906 45.097656 C 229.070312 50.398438 224.539062 58.355469 223.886719 67.5625 C 223.675781 70.472656 225.800781 73.027344 228.707031 73.355469 L 230.585938 73.5625 C 233.789062 73.925781 236.609375 71.597656 236.84375 68.382812 C 236.960938 66.753906 237.308594 65.082031 237.917969 63.398438 C 239.082031 60.152344 241.300781 57.148438 244.023438 55.027344 C 246.113281 53.40625 248.507812 52.898438 251.109375 52.898438 C 260.277344 52.898438 267.75 60.304688 267.835938 69.4375 C 267.824219 69.609375 267.816406 69.761719 267.8125 69.917969 C 267.757812 73.332031 270.164062 76.292969 273.523438 76.941406 C 281.375 78.449219 287.070312 85.339844 287.070312 93.324219 C 287.070312 93.6875 287.039062 94.046875 287.011719 94.40625 L 287 94.539062 C 286.78125 97.523438 288.480469 100.316406 291.226562 101.507812 L 291.390625 101.578125 C 297.757812 104.140625 301.871094 110.214844 301.871094 117.050781 C 301.871094 117.589844 301.839844 118.128906 301.789062 118.664062 C 300.707031 118.554688 299.621094 118.480469 298.511719 118.480469 C 283.25 118.480469 270.449219 129.105469 267.09375 143.328125 C 266.265625 146.859375 268.777344 150.296875 272.40625 150.453125 L 273.074219 150.480469 C 275.875 150.601562 278.25 148.644531 278.914062 145.929688 C 280.445312 139.691406 285.019531 134.4375 290.980469 132.035156 C 303.226562 127.097656 316.554688 137.34375 317.503906 149.902344 C 317.894531 155.078125 316.414062 160.054688 313.273438 164.175781 L 312.816406 164.78125 C 311.007812 167.152344 311.171875 170.476562 313.203125 172.664062 L 313.726562 173.21875 C 317.359375 177.121094 319.363281 182.179688 319.363281 187.464844 C 319.363281 190.726562 318.605469 193.875 317.117188 196.835938 L 316.835938 197.394531 C 315.6875 199.683594 316.082031 202.449219 317.832031 204.320312 L 318.253906 204.78125 C 321.894531 208.683594 323.894531 213.738281 323.894531 219.027344 C 323.894531 224.761719 321.601562 230.121094 317.4375 234.113281 Z M 337.984375 219.027344 C 337.984375 211.742188 335.71875 204.722656 331.535156 198.835938 C 332.804688 195.179688 333.449219 191.371094 333.449219 187.464844 C 333.449219 180.476562 331.367188 173.742188 327.507812 168.007812 C 330.234375 162.953125 331.65625 157.347656 331.65625 151.527344 C 331.65625 139.429688 325.492188 128.429688 315.539062 122.070312 C 315.820312 120.414062 315.957031 118.738281 315.957031 117.050781 C 315.957031 106.101562 310.238281 96.210938 301.046875 90.710938 C 300.046875 78.972656 292.371094 68.878906 281.527344 64.664062 C 279.15625 50.039062 266.417969 38.835938 251.109375 38.835938 C 250.578125 38.835938 250.042969 38.851562 249.511719 38.875 C 243.402344 31.570312 234.476562 27.320312 224.847656 27.320312 C 210.503906 27.320312 198.136719 36.808594 193.980469 50.199219 L 193.980469 324.675781 C 198.105469 338.105469 210.414062 347.605469 224.847656 347.605469 C 232.027344 347.605469 238.925781 345.214844 244.566406 340.824219 C 258.046875 339.953125 269.800781 331.339844 274.8125 319.0625 L 274.878906 319.0625 C 293.308594 319.0625 308.464844 304.800781 309.851562 286.75 C 323.832031 281.980469 333.449219 268.910156 333.449219 253.679688 C 333.449219 249.082031 332.53125 244.53125 330.761719 240.292969 C 335.449219 234.214844 337.984375 226.832031 337.984375 219.027344 " fill-opacity="1" fill-rule="nonzero"/></g><g clip-path="url(#9e61abbd79)"><path fill="#140540" d="M 51.46875 219.027344 C 51.46875 213.738281 53.472656 208.683594 57.109375 204.78125 L 57.535156 204.320312 C 59.285156 202.449219 59.679688 199.683594 58.527344 197.394531 L 58.246094 196.835938 C 56.761719 193.875 56.003906 190.726562 56.003906 187.464844 C 56.003906 182.179688 58.003906 177.121094 61.640625 173.21875 L 62.160156 172.664062 C 64.195312 170.476562 64.359375 167.152344 62.546875 164.78125 L 62.089844 164.175781 C 58.953125 160.054688 57.46875 155.078125 57.859375 149.902344 C 58.808594 137.34375 72.136719 127.097656 84.382812 132.035156 C 90.347656 134.4375 94.921875 139.691406 96.449219 145.929688 C 97.121094 148.644531 99.492188 150.601562 102.289062 150.480469 L 102.960938 150.453125 C 106.585938 150.296875 109.101562 146.859375 108.269531 143.328125 C 104.917969 129.105469 92.113281 118.480469 76.855469 118.480469 C 75.75 118.480469 74.660156 118.554688 73.578125 118.664062 C 73.527344 118.128906 73.496094 117.589844 73.496094 117.050781 C 73.496094 110.214844 77.609375 104.140625 83.972656 101.578125 L 84.136719 101.507812 C 86.886719 100.316406 88.582031 97.523438 88.363281 94.539062 L 88.355469 94.40625 C 88.328125 94.046875 88.296875 93.6875 88.296875 93.324219 C 88.296875 85.339844 93.992188 78.449219 101.839844 76.941406 C 105.199219 76.292969 107.609375 73.332031 107.550781 69.917969 C 107.550781 69.761719 107.539062 69.609375 107.53125 69.4375 C 107.613281 60.304688 115.085938 52.898438 124.253906 52.898438 C 126.859375 52.898438 129.25 53.40625 131.339844 55.027344 C 134.066406 57.148438 136.28125 60.152344 137.453125 63.398438 C 138.054688 65.082031 138.402344 66.753906 138.519531 68.382812 C 138.753906 71.597656 141.574219 73.925781 144.777344 73.5625 L 146.65625 73.355469 C 149.5625 73.027344 151.691406 70.472656 151.476562 67.5625 C 150.828125 58.355469 146.292969 50.398438 139.609375 45.097656 C 142.714844 42.722656 146.507812 41.382812 150.515625 41.382812 C 159.769531 41.382812 167.566406 48.445312 168.652344 57.808594 L 168.789062 58.726562 L 168.789062 315.875 L 168.6875 316.871094 C 167.710938 326.375 159.898438 333.542969 150.515625 333.542969 C 145.96875 333.542969 141.609375 331.820312 138.238281 328.695312 L 137.972656 328.445312 C 136.8125 327.375 135.285156 326.785156 133.703125 326.808594 L 133.339844 326.816406 L 132.882812 326.835938 C 124.144531 326.765625 116.429688 321.230469 113.417969 313.261719 C 123.226562 308.027344 129.917969 297.710938 129.917969 285.855469 C 129.917969 285.628906 129.914062 285.398438 129.910156 285.171875 C 129.832031 281.792969 126.589844 279.378906 123.304688 280.203125 L 122.445312 280.421875 C 119.953125 281.042969 118.246094 283.292969 118.238281 285.859375 C 118.214844 295.21875 111.582031 303.015625 102.78125 304.847656 C 101.996094 304.9375 101.230469 305 100.484375 305 C 88.914062 305 79.5 295.601562 79.5 284.050781 C 79.5 283.382812 79.535156 282.683594 79.605469 281.96875 L 79.6875 281.121094 C 79.996094 278.003906 77.917969 275.117188 74.867188 274.527344 C 70.09375 273.601562 65.433594 271.875 62.078125 268.367188 C 54.867188 260.839844 54.359375 250.570312 59.066406 242.835938 L 59.445312 242.21875 C 60.9375 239.765625 60.523438 236.609375 58.453125 234.621094 L 57.925781 234.113281 C 53.761719 230.121094 51.46875 224.761719 51.46875 219.027344 Z M 44.601562 240.292969 C 42.835938 244.53125 41.914062 249.082031 41.914062 253.679688 C 41.914062 268.910156 51.539062 281.980469 65.515625 286.75 C 66.898438 304.800781 82.058594 319.0625 100.484375 319.0625 L 100.554688 319.0625 C 105.566406 331.339844 117.320312 339.953125 130.796875 340.824219 C 136.4375 345.214844 143.339844 347.605469 150.515625 347.605469 C 164.949219 347.605469 177.257812 338.105469 181.382812 324.675781 L 181.382812 50.199219 C 177.226562 36.808594 164.867188 27.320312 150.515625 27.320312 C 140.890625 27.320312 131.960938 31.570312 125.855469 38.875 C 125.320312 38.851562 124.789062 38.835938 124.253906 38.835938 C 108.945312 38.835938 96.207031 50.039062 93.839844 64.664062 C 82.992188 68.878906 75.316406 78.972656 74.316406 90.710938 C 65.128906 96.210938 59.40625 106.101562 59.40625 117.050781 C 59.40625 118.738281 59.546875 120.414062 59.824219 122.070312 C 49.871094 128.429688 43.710938 139.429688 43.710938 151.527344 C 43.710938 157.347656 45.132812 162.953125 47.855469 168.007812 C 43.996094 173.742188 41.914062 180.476562 41.914062 187.464844 C 41.914062 191.371094 42.558594 195.179688 43.828125 198.835938 C 39.644531 204.722656 37.382812 211.742188 37.382812 219.027344 C 37.382812 226.832031 39.914062 234.214844 44.601562 240.292969 " fill-opacity="1" fill-rule="nonzero"/></g><path fill="#56aeff" d="M 234.804688 113.753906 C 234.804688 118.78125 230.71875 122.859375 225.683594 122.859375 C 220.644531 122.859375 216.5625 118.78125 216.5625 113.753906 C 216.5625 108.722656 220.644531 104.648438 225.683594 104.648438 C 230.71875 104.648438 234.804688 108.722656 234.804688 113.753906 " fill-opacity="1" fill-rule="nonzero"/><path fill="#145da0" d="M 278.875 111.152344 C 278.875 116.179688 274.789062 120.257812 269.753906 120.257812 C 264.714844 120.257812 260.628906 116.179688 260.628906 111.152344 C 260.628906 106.121094 264.714844 102.046875 269.753906 102.046875 C 274.789062 102.046875 278.875 106.121094 278.875 111.152344 " fill-opacity="1" fill-rule="nonzero"/><path fill="#145da0" d="M 248.921875 161.015625 C 248.921875 169.992188 241.628906 177.273438 232.632812 177.273438 C 223.636719 177.273438 216.34375 169.992188 216.34375 161.015625 C 216.34375 152.035156 223.636719 144.753906 232.632812 144.753906 C 241.628906 144.753906 248.921875 152.035156 248.921875 161.015625 " fill-opacity="1" fill-rule="nonzero"/><path fill="#145da0" d="M 246.316406 249.03125 C 246.316406 258.011719 239.023438 265.292969 230.027344 265.292969 C 221.03125 265.292969 213.738281 258.011719 213.738281 249.03125 C 213.738281 240.050781 221.03125 232.773438 230.027344 232.773438 C 239.023438 232.773438 246.316406 240.050781 246.316406 249.03125 " fill-opacity="1" fill-rule="nonzero"/><path fill="#56aeff" d="M 286.039062 216.511719 C 286.039062 225.492188 278.746094 232.773438 269.753906 232.773438 C 260.757812 232.773438 253.464844 225.492188 253.464844 216.511719 C 253.464844 207.535156 260.757812 200.253906 269.753906 200.253906 C 278.746094 200.253906 286.039062 207.535156 286.039062 216.511719 " fill-opacity="1" fill-rule="nonzero"/><path fill="#56aeff" d="M 291.734375 169.152344 C 291.734375 173.644531 288.085938 177.285156 283.582031 177.285156 C 279.082031 177.285156 275.433594 173.644531 275.433594 169.152344 C 275.433594 164.65625 279.082031 161.015625 283.582031 161.015625 C 288.085938 161.015625 291.734375 164.65625 291.734375 169.152344 " fill-opacity="1" fill-rule="nonzero"/><path fill="#56aeff" d="M 257.070312 88.171875 C 257.070312 92.664062 253.421875 96.308594 248.921875 96.308594 C 244.417969 96.308594 240.765625 92.664062 240.765625 88.171875 C 240.765625 83.675781 244.417969 80.035156 248.921875 80.035156 C 253.421875 80.035156 257.070312 83.675781 257.070312 88.171875 " fill-opacity="1" fill-rule="nonzero"/><path fill="#56aeff" d="M 246.328125 197.867188 C 246.328125 202.363281 242.679688 206.003906 238.175781 206.003906 C 233.675781 206.003906 230.027344 202.363281 230.027344 197.867188 C 230.027344 193.375 233.675781 189.734375 238.175781 189.734375 C 242.679688 189.734375 246.328125 193.375 246.328125 197.867188 " fill-opacity="1" fill-rule="nonzero"/><path fill="#145da0" d="M 312.449219 224.648438 C 312.449219 229.144531 308.796875 232.785156 304.296875 232.785156 C 299.796875 232.785156 296.144531 229.144531 296.144531 224.648438 C 296.144531 220.15625 299.796875 216.511719 304.296875 216.511719 C 308.796875 216.511719 312.449219 220.15625 312.449219 224.648438 " fill-opacity="1" fill-rule="nonzero"/></svg>